<mxfile host="app.diagrams.net" modified="2022-11-28T14:04:06.172Z" agent="5.0 (Windows NT 10.0; Win64; x64) AppleWebKit/537.36 (KHTML, like Gecko) Chrome/107.0.0.0 Safari/537.36" version="20.6.0" etag="0aWRBIuEOKoiX4DY_Uv_" type="github">
  <diagram id="DjIf-wqWfu3W05AZPPAc" name="第 1 页">
    <mxGraphModel dx="870" dy="538" grid="1" gridSize="10" guides="1" tooltips="1" connect="1" arrows="1" fold="1" page="1" pageScale="1" pageWidth="827" pageHeight="1169" math="0" shadow="0">
      <root>
        <mxCell id="0" />
        <mxCell id="1" parent="0" />
        <mxCell id="AkTlHRGRn2P8YV-Zbfk0-1" value="" style="rounded=0;whiteSpace=wrap;html=1;" vertex="1" parent="1">
          <mxGeometry x="120" y="100" width="230" height="180" as="geometry" />
        </mxCell>
        <mxCell id="AkTlHRGRn2P8YV-Zbfk0-2" value="用户程序A" style="text;html=1;strokeColor=none;fillColor=none;align=center;verticalAlign=middle;whiteSpace=wrap;rounded=0;" vertex="1" parent="1">
          <mxGeometry x="120" y="70" width="60" height="30" as="geometry" />
        </mxCell>
        <mxCell id="AkTlHRGRn2P8YV-Zbfk0-3" value="文件系统服务" style="text;html=1;strokeColor=none;fillColor=none;align=center;verticalAlign=middle;whiteSpace=wrap;rounded=0;" vertex="1" parent="1">
          <mxGeometry x="490" y="70" width="90" height="30" as="geometry" />
        </mxCell>
        <mxCell id="AkTlHRGRn2P8YV-Zbfk0-4" value="" style="rounded=0;whiteSpace=wrap;html=1;" vertex="1" parent="1">
          <mxGeometry x="480" y="100" width="320" height="180" as="geometry" />
        </mxCell>
        <mxCell id="AkTlHRGRn2P8YV-Zbfk0-7" style="edgeStyle=orthogonalEdgeStyle;rounded=0;orthogonalLoop=1;jettySize=auto;html=1;exitX=1;exitY=0.5;exitDx=0;exitDy=0;entryX=0;entryY=0.5;entryDx=0;entryDy=0;" edge="1" parent="1" source="AkTlHRGRn2P8YV-Zbfk0-5" target="AkTlHRGRn2P8YV-Zbfk0-6">
          <mxGeometry relative="1" as="geometry" />
        </mxCell>
        <mxCell id="AkTlHRGRn2P8YV-Zbfk0-5" value="3" style="rounded=0;whiteSpace=wrap;html=1;" vertex="1" parent="1">
          <mxGeometry x="160" y="140" width="20" height="20" as="geometry" />
        </mxCell>
        <mxCell id="AkTlHRGRn2P8YV-Zbfk0-6" value="描述符信息" style="rounded=0;whiteSpace=wrap;html=1;" vertex="1" parent="1">
          <mxGeometry x="200" y="140" width="100" height="20" as="geometry" />
        </mxCell>
        <mxCell id="AkTlHRGRn2P8YV-Zbfk0-8" style="edgeStyle=orthogonalEdgeStyle;rounded=0;orthogonalLoop=1;jettySize=auto;html=1;exitX=1;exitY=0.5;exitDx=0;exitDy=0;entryX=0;entryY=0.5;entryDx=0;entryDy=0;" edge="1" parent="1" source="AkTlHRGRn2P8YV-Zbfk0-9" target="AkTlHRGRn2P8YV-Zbfk0-10">
          <mxGeometry relative="1" as="geometry" />
        </mxCell>
        <mxCell id="AkTlHRGRn2P8YV-Zbfk0-9" value="4" style="rounded=0;whiteSpace=wrap;html=1;" vertex="1" parent="1">
          <mxGeometry x="160" y="180" width="20" height="20" as="geometry" />
        </mxCell>
        <mxCell id="AkTlHRGRn2P8YV-Zbfk0-10" value="描述符信息" style="rounded=0;whiteSpace=wrap;html=1;" vertex="1" parent="1">
          <mxGeometry x="200" y="180" width="100" height="20" as="geometry" />
        </mxCell>
        <mxCell id="AkTlHRGRn2P8YV-Zbfk0-11" value="" style="endArrow=classic;html=1;rounded=0;" edge="1" parent="1">
          <mxGeometry width="50" height="50" relative="1" as="geometry">
            <mxPoint x="380" y="179" as="sourcePoint" />
            <mxPoint x="460" y="179" as="targetPoint" />
          </mxGeometry>
        </mxCell>
        <mxCell id="AkTlHRGRn2P8YV-Zbfk0-12" value="dup2(4,5)" style="text;html=1;strokeColor=none;fillColor=none;align=center;verticalAlign=middle;whiteSpace=wrap;rounded=0;" vertex="1" parent="1">
          <mxGeometry x="384" y="150" width="60" height="30" as="geometry" />
        </mxCell>
        <mxCell id="AkTlHRGRn2P8YV-Zbfk0-22" style="edgeStyle=orthogonalEdgeStyle;rounded=0;orthogonalLoop=1;jettySize=auto;html=1;exitX=1;exitY=0.5;exitDx=0;exitDy=0;entryX=0;entryY=0.5;entryDx=0;entryDy=0;" edge="1" parent="1" source="AkTlHRGRn2P8YV-Zbfk0-13" target="AkTlHRGRn2P8YV-Zbfk0-16">
          <mxGeometry relative="1" as="geometry" />
        </mxCell>
        <mxCell id="AkTlHRGRn2P8YV-Zbfk0-13" value="(用户A，3)" style="rounded=0;whiteSpace=wrap;html=1;" vertex="1" parent="1">
          <mxGeometry x="520" y="140" width="86" height="20" as="geometry" />
        </mxCell>
        <mxCell id="AkTlHRGRn2P8YV-Zbfk0-23" style="edgeStyle=orthogonalEdgeStyle;rounded=0;orthogonalLoop=1;jettySize=auto;html=1;exitX=1;exitY=0.5;exitDx=0;exitDy=0;entryX=0;entryY=0.5;entryDx=0;entryDy=0;" edge="1" parent="1" source="AkTlHRGRn2P8YV-Zbfk0-14" target="AkTlHRGRn2P8YV-Zbfk0-20">
          <mxGeometry relative="1" as="geometry" />
        </mxCell>
        <mxCell id="AkTlHRGRn2P8YV-Zbfk0-14" value="(用户A，4)" style="rounded=0;whiteSpace=wrap;html=1;" vertex="1" parent="1">
          <mxGeometry x="520" y="180" width="86" height="20" as="geometry" />
        </mxCell>
        <mxCell id="AkTlHRGRn2P8YV-Zbfk0-16" value="服务端表项：偏移量" style="rounded=1;whiteSpace=wrap;html=1;" vertex="1" parent="1">
          <mxGeometry x="640" y="140" width="120" height="20" as="geometry" />
        </mxCell>
        <mxCell id="AkTlHRGRn2P8YV-Zbfk0-17" style="edgeStyle=orthogonalEdgeStyle;rounded=0;orthogonalLoop=1;jettySize=auto;html=1;exitX=1;exitY=0.5;exitDx=0;exitDy=0;entryX=0;entryY=0.5;entryDx=0;entryDy=0;dashed=1;" edge="1" parent="1" source="AkTlHRGRn2P8YV-Zbfk0-18" target="AkTlHRGRn2P8YV-Zbfk0-19">
          <mxGeometry relative="1" as="geometry" />
        </mxCell>
        <mxCell id="AkTlHRGRn2P8YV-Zbfk0-18" value="5" style="rounded=0;whiteSpace=wrap;html=1;dashed=1;" vertex="1" parent="1">
          <mxGeometry x="160" y="220" width="20" height="20" as="geometry" />
        </mxCell>
        <mxCell id="AkTlHRGRn2P8YV-Zbfk0-19" value="描述符信息" style="rounded=0;whiteSpace=wrap;html=1;dashed=1;" vertex="1" parent="1">
          <mxGeometry x="200" y="220" width="100" height="20" as="geometry" />
        </mxCell>
        <mxCell id="AkTlHRGRn2P8YV-Zbfk0-20" value="服务端表项：偏移量" style="rounded=1;whiteSpace=wrap;html=1;" vertex="1" parent="1">
          <mxGeometry x="640" y="180" width="120" height="20" as="geometry" />
        </mxCell>
        <mxCell id="AkTlHRGRn2P8YV-Zbfk0-25" style="rounded=0;orthogonalLoop=1;jettySize=auto;html=1;exitX=1;exitY=0.5;exitDx=0;exitDy=0;entryX=0;entryY=0.5;entryDx=0;entryDy=0;dashed=1;" edge="1" parent="1" source="AkTlHRGRn2P8YV-Zbfk0-24" target="AkTlHRGRn2P8YV-Zbfk0-20">
          <mxGeometry relative="1" as="geometry" />
        </mxCell>
        <mxCell id="AkTlHRGRn2P8YV-Zbfk0-24" value="(用户A，5)" style="rounded=0;whiteSpace=wrap;html=1;dashed=1;" vertex="1" parent="1">
          <mxGeometry x="520" y="220" width="86" height="20" as="geometry" />
        </mxCell>
      </root>
    </mxGraphModel>
  </diagram>
</mxfile>
